<svg xmlns="http://www.w3.org/2000/svg" width="32" height="32" fill="currentColor" viewBox="0 0 32 32"><path d="M19.129 8.623a4.248 4.248 0 0 1 4.248 4.248v6.258a4.248 4.248 0 0 1-4.248 4.248H12.87a4.248 4.248 0 0 1-4.248-4.248V12.87a4.248 4.248 0 0 1 4.248-4.248h6.258Zm-8.382 10.506c0 1.172.951 2.124 2.124 2.124h2.982c-.35-.353-.71-.711-1.118-1.099-1.175-1.117-2.111-2.075-3.035-3.02l-.002-.002c-.315-.323-.63-.644-.951-.97v2.967Zm6.23.246c.265.264.519.516.767.766l.002.002c.363.367.72.726 1.115 1.11h.268a2.124 2.124 0 0 0 2.124-2.124v-4.04l-4.277 4.286Zm-4.106-8.628a2.125 2.125 0 0 0-2.124 2.124v.299c.918.89 1.698 1.687 2.468 2.474l.002.002a131.69 131.69 0 0 0 2.237 2.248l5.686-5.7a2.124 2.124 0 0 0-2.011-1.447H12.87Z"/></svg>