<svg xmlns="http://www.w3.org/2000/svg" width="32" height="32" fill="currentColor" viewBox="0 0 32 32"><path d="m12.987 23.138.179-1.218 3.605-2.74-3.784 3.958Zm9.48-11.795 1.365 2.56-4.2 8.4h-3.306l1.617-3.237 2.12-.846a.999.999 0 0 0 .398-.293 2.078 2.078 0 0 0 .7-3.395 2.078 2.078 0 0 0-.7-.46l-.014-.014 1.65-3.298h.06l.31.583Zm-12.501 6.81H8.89a1.076 1.076 0 0 1-1.077-1.077v-2.152a1.076 1.076 0 0 1 1.077-1.076h1.076v4.304Zm5.422 0H11.04v-4.305h4.347v4.304Zm4.304-3.444v.215a1.076 1.076 0 0 1 0 2.152v.215l-2.152.861h-1.076v-4.304h1.076l2.152.861Zm-.078-.652-2.673-2.762V9.572l2.673 4.485Zm.605-2.774-.234 2.365-.525-3.869.759 1.504Z"/><path d="m4.092 16 3.646 5.128h.912L5.915 16l2.735-5.128h-.912L4.092 16Zm23.816 0-3.646-5.128h-.912L26.085 16l-2.735 5.128h.912L27.908 16Z"/></svg>