<svg xmlns="http://www.w3.org/2000/svg" width="32" height="32" fill="currentColor" viewBox="0 0 32 32"><path d="M19.633 22.304h-3.307l1.617-3.238 2.12-.846a.998.998 0 0 0 .398-.293A2.076 2.076 0 0 0 21.77 16a2.077 2.077 0 0 0-1.308-1.928l-.014-.014 1.65-3.298h3.307l-5.771 11.544ZM20.769 16l-.006.106c.003-.035.005-.07.005-.106l-.005-.106c.003.035.006.07.006.106Z"/><path fill-rule="evenodd" d="M19.692 17.076v.215l-2.152.861v-4.304l2.152.86v.216a1.076 1.076 0 0 1 0 2.152Zm-4.304 1.076H11.04v-4.304h4.347v4.304Zm-7.575-1.076v-2.152a1.076 1.076 0 0 1 1.076-1.076h1.076v4.304H8.89a1.076 1.076 0 0 1-1.076-1.076Zm9.727 1.076h-1.076v-4.304h1.076v4.304Z" clip-rule="evenodd"/><path d="m16.772 19.18-3.785 3.958.179-1.218 3.606-2.74Zm2.842-5.123-2.672-2.762V9.572l2.672 4.485Zm.371-.41L19.46 9.78l.759 1.504-.234 2.364Z"/></svg>