<svg xmlns="http://www.w3.org/2000/svg" width="32" height="32" fill="currentColor" viewBox="0 0 32 32"><path d="M12.302 10.15c-.324.165-.62-.264-.352-.509l3.804-3.483a.365.365 0 0 1 .492 0L20.05 9.64c.268.245-.028.674-.352.51L16 8.28l-3.698 1.87Z"/><path d="m12.987 23.138.179-1.218 3.605-2.74-3.784 3.958Zm6.646-.834h-3.307l1.617-3.238 2.12-.846a.999.999 0 0 0 .398-.293 2.078 2.078 0 0 0 .7-3.395 2.078 2.078 0 0 0-.7-.46l-.014-.014 1.65-3.298h3.307l-5.771 11.544Zm-9.667-4.152H8.89a1.076 1.076 0 0 1-1.077-1.076v-2.152a1.076 1.076 0 0 1 1.077-1.076h1.076v4.304Zm5.422 0H11.04v-4.304h4.347v4.304Zm4.304-3.443v.215a1.076 1.076 0 0 1 0 2.152v.215l-2.152.861h-1.076v-4.304h1.076l2.152.861Zm-.078-.652-2.673-2.762V9.572l2.673 4.485Zm.605-2.774-.234 2.365-.638-2.99.872.625Z"/></svg>