<svg xmlns="http://www.w3.org/2000/svg" width="32" height="32" fill="currentColor" viewBox="0 0 32 32"><path d="M12.958 24.112H8.901l2.029-4.055h4.056l-2.028 4.055Zm-2.028-6.084H9.916a1.015 1.015 0 0 1-1.015-1.014v-2.028a1.016 1.016 0 0 1 1.015-1.014h1.014v4.056Zm7.098 0h-6.084v-4.056h6.084v4.056Zm4.056-3.245v.203a1.014 1.014 0 0 1 0 2.028v.203l-2.027.811h-1.015v-4.056h1.015l2.027.811Zm-2.837-3.74c.068.034.136.06.203.083l-.408.818h-4.056l1.22-2.44 3.041 1.539Zm1.366-2.242-.997-.913h1.454l-.457.913Z"/><path d="M12.302 10.15c-.324.165-.62-.264-.352-.509l3.804-3.483a.365.365 0 0 1 .492 0L20.05 9.64c.268.245-.028.674-.352.51L16 8.28l-3.698 1.87Z"/></svg>