<svg xmlns="http://www.w3.org/2000/svg" width="32" height="32" fill="currentColor" viewBox="0 0 32 32"><path fill-rule="evenodd" d="m14.986 11.944 2.028-4.056h4.056l-2.028 4.056h-4.056Zm-2.028 12.168H8.902l2.028-4.056h4.056l-2.028 4.056Zm9.532-6.925v.237l-2.374.95v-4.747l2.373.949v.237a1.186 1.186 0 1 1 0 2.374Zm-4.748 1.187h-5.858v-4.747h5.858v4.747Zm-9.418-1.187v-2.374a1.187 1.187 0 0 1 1.187-1.187h1.187v4.748H9.51a1.187 1.187 0 0 1-1.187-1.187Zm11.792 1.187h-1.187v-4.747h1.187v4.747Z" clip-rule="evenodd"/></svg>