<svg xmlns="http://www.w3.org/2000/svg" width="32" height="32" fill="currentColor" viewBox="0 0 32 32"><path d="m4.092 16 3.646 5.128h.912L5.915 16l2.735-5.128h-.912L4.092 16Zm23.816 0-3.646-5.128h-.912L26.085 16l-2.735 5.128h.912L27.908 16Z"/><path fill-rule="evenodd" d="M22.084 17.014v.203l-2.028.811v-4.056l2.028.811v.203a1.014 1.014 0 1 1 0 2.028Zm-7.098-5.07 2.028-4.056h4.056l-2.028 4.056h-4.056Zm3.042 6.084h-6.084v-4.056h6.084v4.056Zm-5.07 6.084H8.902l2.028-4.056h4.056l-2.028 4.056Zm-4.056-7.098v-2.028a1.014 1.014 0 0 1 1.014-1.014h1.014v4.056H9.916a1.014 1.014 0 0 1-1.014-1.014Zm11.154 1.014h-1.014v-4.056h1.014v4.056Z" clip-rule="evenodd"/></svg>