<svg xmlns="http://www.w3.org/2000/svg" width="32" height="32" fill="currentColor" viewBox="0 0 32 32"><path d="M25.857 15.172v1.08l-3.367 1.594-.13-.053-2.025-.837c.42-.245.717-.675.78-1.18.201-.088.38-.218.53-.375.259.142.587.11.812-.102l1.132-1.063 2.268.936Zm-16.401.063c.213.2.518.238.77.122.156.178.35.322.57.42.063.504.36.934.78 1.18l-2.023.835-.059.024-3.438-1.628v-1.08l2.268-.936 1.132 1.063Zm13.847-1.552-.995.921h-.244c.022-.108.035-.22.035-.336v-1.75a1.64 1.64 0 0 0-.412-1.088h1.616v2.253Zm-13.019-2.317c-.29.297-.47.703-.47 1.152v1.75c0 .093.01.184.024.272h-.233l-.995-.921v-2.253h1.674Zm11.694-2.61c1.612 0 2.689 1.116 2.689 2.003h.204a.42.42 0 0 1 .42.42v1.127a.42.42 0 0 1-.42.42h-.204v.424a.387.387 0 0 1-.773 0v-1.994a.397.397 0 0 0-.396-.397h-2.59a4.166 4.166 0 0 0-.87-1.342c.47-.386 1.14-.662 1.94-.662ZM9.936 8.69c.82 0 1.5.29 1.972.692a4.218 4.218 0 0 0-.88 1.313H8.415a.396.396 0 0 0-.396.396v1.993a.386.386 0 0 1-.773 0v-.423h-.205a.42.42 0 0 1-.419-.42v-1.127a.42.42 0 0 1 .419-.42h.205c0-.886 1.077-2.004 2.689-2.004ZM16.7 18.914a1.085 1.085 0 0 1-1.486 0l-1.758-1.65-3.521 1.453v1.677l6.021 2.85 6.022-2.85v-1.677l-3.522-1.453-1.757 1.65Z"/><path d="M15.956 12.907h-2.055v3.498l1.545 1.43h1.02l1.546-1.43v-3.498h-2.056Z"/><path d="M11.783 11.867c0-1.378 1.672-3.112 4.173-3.112 2.502 0 4.174 1.734 4.174 3.112h.317a.65.65 0 0 1 .651.65v1.75c0 .36-.291.652-.65.652h-.318v.658a.6.6 0 1 1-1.2 0v-3.095a.616.616 0 0 0-.615-.615h-4.718a.616.616 0 0 0-.615.615v3.095a.6.6 0 1 1-1.199 0v-.658h-.318a.651.651 0 0 1-.65-.651v-1.75c0-.36.29-.651.65-.651h.318Z"/></svg>