<svg xmlns="http://www.w3.org/2000/svg" width="32" height="32" fill="currentColor" viewBox="0 0 32 32"><path d="m12.303 15.578-1.557 4.502-3.83 2.605 3.922-11.343 1.465 4.236Zm12.782 7.107-3.824-2.6-1.562-4.515 1.463-4.228 3.923 11.343Zm-14.641 1.222 5.559-16.074 5.559 16.074-5.56-3.78-5.558 3.78Z"/><path d="M12.344 8.01c.04.039 2.3-1.125 3.598-1.797v-.001c1.257.649 3.605 1.856 3.665 1.856.11-.029.215-.072.312-.13a.265.265 0 0 0 0-.4l-3.673-3.383a.322.322 0 0 0-.235-.082.323.323 0 0 0-.257.08l-3.673 3.376a.265.265 0 0 0 0 .4l.263.082Z"/></svg>