<svg xmlns="http://www.w3.org/2000/svg" width="32" height="32" fill="currentColor" viewBox="0 0 32 32"><path d="m4.092 16 3.646 5.128h.912L5.915 16l2.735-5.128h-.912L4.092 16Zm23.816 0-3.646-5.128h-.912L26.085 16l-2.735 5.128h.912L27.908 16Z"/><path fill-rule="evenodd" d="m21.02 12.415.143.144-.86 2.007-2.869-2.868 2.008-.86.143.143a1.014 1.014 0 1 1 1.434 1.434ZM18.867 16l-4.302 4.302-2.868-2.868L16 13.132 18.868 16Zm-7.17 5.736-1.434-1.434a1.014 1.014 0 0 1 0-1.434l.717-.717 2.868 2.869-.717.716a1.014 1.014 0 0 1-1.434 0Zm8.604-7.17-.717.717-2.868-2.868.717-.717 2.868 2.868Z" clip-rule="evenodd"/></svg>