<svg xmlns="http://www.w3.org/2000/svg" width="32" height="32" fill="currentColor" viewBox="0 0 32 32"><path fill-rule="evenodd" d="m21.02 12.415.143.143-.86 2.008-2.869-2.868 2.008-.86.143.143a1.014 1.014 0 1 1 1.434 1.434ZM18.867 16l-4.302 4.302-2.868-2.868L16 13.132 18.868 16Zm-7.17 5.736-1.434-1.434a1.014 1.014 0 0 1 0-1.434l.717-.717 2.868 2.868-.717.717a1.014 1.014 0 0 1-1.434 0Zm8.604-7.17-.717.717-2.868-2.868.717-.717 2.868 2.868Z" clip-rule="evenodd"/><path d="M12.302 8.915c-.324.164-.62-.264-.352-.51l3.804-3.483a.365.365 0 0 1 .492 0l3.804 3.483c.268.246-.028.674-.352.51L16 7.045l-3.698 1.87Z"/></svg>