<svg xmlns="http://www.w3.org/2000/svg" width="32" height="32" fill="currentColor" viewBox="0 0 32 32"><path d="M16.787 19.088a1.15 1.15 0 0 1-1.574 0l-1.863-1.749-3.732 1.54v1.777L16 23.678l6.382-3.021v-1.778l-3.732-1.54-1.863 1.749Z"/><path d="M16 12.722h-2.178v3.707l1.637 1.516h1.082l1.637-1.516v-3.707H16Z"/><path d="M11.577 11.62c0-1.46 1.772-3.298 4.423-3.298 2.65 0 4.423 1.838 4.423 3.298h.336a.69.69 0 0 1 .69.69v1.854a.69.69 0 0 1-.69.69h-.336v.698a.635.635 0 1 1-1.27 0v-3.28a.652.652 0 0 0-.653-.652h-5a.652.652 0 0 0-.652.652v3.28a.635.635 0 1 1-1.27 0v-.698h-.337a.69.69 0 0 1-.69-.69V12.31a.69.69 0 0 1 .69-.69h.336Z"/></svg>