<svg xmlns="http://www.w3.org/2000/svg" width="32" height="32" fill="currentColor" viewBox="0 0 32 32"><path d="M18.61 24.249h.922l-2.96-8.675a5.85 5.85 0 0 0-.32.03 2.601 2.601 0 0 0-.548.128l2.906 8.517Z"/><path fill-rule="evenodd" d="M23.04 15.775a41.93 41.93 0 0 1-.98-2.14c.742.065 1.512.313 1.512.313.361 1.88.781 2.966 1.735 4.93 0 0-1.965.114-2.897-.298-.179-.078-.33-.15-.465-.215-.57-.273-.85-.407-1.694-.306-.598.071-1.055.347-1.457.59a5.336 5.336 0 0 1-.479.268c-.158-.351-.27-.616-.361-.835-.186-.44-.292-.693-.54-1.082-.24-.374-.512-.912-.755-1.43.339-.015.548.022.74.084.143.047.293.112.496.209l.15.072c.169.08.366.175.595.276.698.308 1.708.4 2.468.428a17.214 17.214 0 0 0 1.313-.002l.04-.002.045-.002h.023l.006-.002h.004l.892-.052-.39-.804Z" clip-rule="evenodd"/><path d="M14.055 9.338c1.53.78 2.96.125 3.986.125 1.026 0 2.293.41 2.293.41.452 2.35.977 3.708 2.17 6.163 0 0-2.457.143-3.623-.371-1.167-.515-1.396-.808-2.7-.652-1.058.126-1.766.766-2.42 1.073-.597-1.325-.663-1.67-1.128-2.398-.466-.728-1.031-1.953-1.405-2.81l4.053 11.875H14.13L9.367 8.8h1.152l.002.006c.972-.027 2.538.024 3.534.533Z"/></svg>