<svg xmlns="http://www.w3.org/2000/svg" width="76" height="76" fill="currentColor" viewBox="0 0 76 76"><path d="M0 38c0-1.43.53-2.647 1.588-3.653L27.557 8.378c.556-.556 1.125-.953 1.707-1.191a4.549 4.549 0 0 1 1.827-.397c1.456 0 2.634.45 3.534 1.35.9.9 1.35 2.012 1.35 3.335 0 .715-.146 1.377-.437 1.986a5.236 5.236 0 0 1-1.072 1.548l-8.894 8.974-10.439 9.586 8.97-.493h46.854c1.509 0 2.727.463 3.653 1.39.927.9 1.39 2.078 1.39 3.534 0 1.482-.463 2.687-1.39 3.613-.926.9-2.144 1.35-3.653 1.35H24.102l-9.02-.52 10.49 9.574 8.894 8.973c.45.45.807.967 1.072 1.55.291.581.437 1.243.437 1.985 0 1.323-.45 2.435-1.35 3.335-.9.9-2.078 1.35-3.534 1.35-1.27 0-2.422-.516-3.455-1.549L1.588 41.653C.53 40.647 0 39.429 0 38Z"/></svg>