<svg xmlns="http://www.w3.org/2000/svg" width="76" height="76" fill="currentColor" viewBox="0 0 76 76"><path d="M76 38c0-1.43-.53-2.647-1.588-3.653L48.443 8.378c-.556-.556-1.125-.953-1.707-1.191a4.549 4.549 0 0 0-1.827-.397c-1.456 0-2.634.45-3.534 1.35-.9.9-1.35 2.012-1.35 3.335 0 .715.146 1.377.437 1.986a5.236 5.236 0 0 0 1.072 1.548l8.894 8.974 10.439 9.586-8.97-.493H5.044c-1.509 0-2.727.463-3.653 1.39C.463 35.366 0 36.544 0 38c0 1.482.463 2.687 1.39 3.613.926.9 2.144 1.35 3.653 1.35h46.855l9.02-.52-10.49 9.574-8.894 8.973a5.24 5.24 0 0 0-1.072 1.55c-.291.581-.437 1.243-.437 1.985 0 1.323.45 2.435 1.35 3.335.9.9 2.078 1.35 3.534 1.35 1.27 0 2.422-.516 3.455-1.549l26.048-26.008C75.47 40.647 76 39.429 76 38Z"/></svg>