<svg xmlns="http://www.w3.org/2000/svg" width="77" height="77" fill="currentColor" viewBox="0 0 77 77">
  <path d="M10.491 59.979c-3.326-.823-6.346-1.845-8.74-3.104v9.114c0 .317.055.631.161.94 1.755 5.113 17.668 9.115 37.04 9.115 19.37 0 35.283-4.002 37.038-9.114.106-.31.16-.624.16-.941v-9.114c-2.392 1.259-5.412 2.281-8.739 3.104-3.276.81-7.051 1.475-11.178 1.965-5.284.629-11.146.973-17.282.973-6.135 0-11.998-.344-17.282-.973-4.127-.49-7.901-1.155-11.178-1.965ZM38.951.044c-20.545 0-37.2 4.52-37.2 10.074v.434l.044.04c1.99 1.808 6.081 3.403 11.586 4.613 4.122.906 9.037 1.596 14.455 2 3.519.262 7.25.402 11.115.402s7.596-.14 11.116-.402c5.417-.404 10.332-1.094 14.454-2 5.505-1.21 9.596-2.805 11.586-4.613l.044-.04v-.453C76.15 4.546 59.496.044 38.95.044ZM13.646 42.156c7.05 1.422 15.873 2.242 25.35 2.242 9.475 0 18.299-.82 25.348-2.242 1.08-.218 2.118-.45 3.111-.695a52.881 52.881 0 0 0 4.474-1.303c1.565-.538 3.003-1.137 4.266-1.801v8.757c-4.392 4.064-19.427 7.056-37.244 7.056s-32.808-2.992-37.2-7.056v-4.929l.088-2.027-.044-1.801c1.264.664 2.701 1.263 4.267 1.8 1.4.482 2.902.915 4.473 1.304.993.245 2.031.477 3.111.695Zm-.043-8.668C7.945 32.263 3.75 30.636 1.75 28.786V20.23c1.227.646 2.619 1.229 4.132 1.755 1.438.5 2.987.948 4.608 1.349.925.229 1.889.446 2.89.65 7.085 1.45 15.995 2.288 25.57 2.288 9.575 0 18.485-.837 25.57-2.287a72.909 72.909 0 0 0 2.89-.651c1.621-.4 3.17-.85 4.608-1.35 1.513-.525 2.905-1.108 4.132-1.754v8.556c-2 1.85-6.194 3.477-11.851 4.702-4.242.918-9.305 1.61-14.882 1.998-3.328.232-6.839.356-10.467.356s-7.139-.124-10.467-.356c-5.577-.389-10.64-1.08-14.881-1.998Z"/>
</svg>
