<svg xmlns="http://www.w3.org/2000/svg" width="76" height="77" fill="currentColor" viewBox="0 0 76 77">
  <path d="M.343 31.085c0-4.271.801-8.275 2.403-12.012 1.627-3.763 3.864-7.068 6.711-9.915a30.927 30.927 0 0 1 9.877-6.712C23.096.845 27.113.044 31.384.044c4.296 0 8.313.8 12.05 2.402a30.812 30.812 0 0 1 9.915 6.712c2.847 2.847 5.072 6.152 6.673 9.915 1.627 3.737 2.44 7.74 2.44 12.012 0 3.355-.52 6.546-1.563 9.571-1.017 3.025-2.428 5.784-4.233 8.275l17.39 17.465a4.697 4.697 0 0 1 1.181 1.793c.28.686.42 1.41.42 2.173 0 1.068-.242 2.034-.725 2.898a5.225 5.225 0 0 1-1.983 2.021c-.839.509-1.805.763-2.898.763-.763 0-1.5-.14-2.212-.42a5.168 5.168 0 0 1-1.868-1.22L48.468 56.901a32.365 32.365 0 0 1-8.008 3.851c-2.873.916-5.898 1.373-9.076 1.373-4.271 0-8.288-.8-12.05-2.402a31.234 31.234 0 0 1-9.877-6.673 31.772 31.772 0 0 1-6.711-9.877C1.144 39.41.343 35.38.343 31.085Zm8.123 0c0 3.177.584 6.152 1.754 8.923a23.305 23.305 0 0 0 4.957 7.321 23.632 23.632 0 0 0 7.322 4.92c2.77 1.194 5.733 1.792 8.885 1.792 3.178 0 6.152-.597 8.923-1.792s5.199-2.835 7.284-4.92a23.305 23.305 0 0 0 4.957-7.321c1.195-2.771 1.792-5.746 1.792-8.923 0-3.153-.597-6.114-1.792-8.886a23.306 23.306 0 0 0-4.957-7.321 22.346 22.346 0 0 0-7.284-4.92c-2.771-1.194-5.745-1.792-8.923-1.792-3.152 0-6.114.598-8.885 1.793a22.78 22.78 0 0 0-7.322 4.919A23.306 23.306 0 0 0 10.22 22.2c-1.17 2.77-1.754 5.732-1.754 8.885Z"/>
</svg>
