<svg xmlns="http://www.w3.org/2000/svg" viewBox="0 0 80 81">
  <path
    d="M20.823 79.433H59.13c7.764 0 11.645-3.928 11.645-11.784V35.44c0-5.083-.554-7.3-3.743-10.582L47.856 5.265c-3.004-3.096-5.5-3.743-9.935-3.743H20.823c-7.764 0-11.6 3.928-11.6 11.784v54.343c0 7.902 3.836 11.784 11.6 11.784Zm.323-6.654c-3.466 0-5.268-1.895-5.268-5.222V13.398c0-3.327 1.802-5.222 5.314-5.222h15.573V28.74c0 4.806 2.45 7.255 7.255 7.255h20.056v31.562c0 3.327-1.802 5.222-5.268 5.222H21.146Zm23.66-43.022c-1.294 0-1.848-.555-1.848-1.849V9.424l19.87 20.333H44.806Z" />
  <path
    d="M43.142 42.834c0-1.71-1.478-3.096-3.142-3.096-1.71 0-3.188 1.387-3.188 3.096v11.738l.277 5.453-2.08-2.172-3.327-3.373a3.028 3.028 0 0 0-2.172-.97c-1.71 0-2.911 1.2-2.911 2.818 0 .878.323 1.571.97 2.126l10.12 9.15c.879.785 1.48 1.062 2.311 1.062.786 0 1.433-.277 2.31-1.063l10.12-9.15c.648-.554.971-1.247.971-2.125 0-1.617-1.248-2.819-2.911-2.819-.786 0-1.617.324-2.172.97l-3.373 3.374-2.08 2.172.277-5.453V42.834Z" />
</svg>