<svg xmlns="http://www.w3.org/2000/svg" viewBox="0 0 80 81">
  <path d="M39.034 42.643c-1.017 0-1.89.327-2.617.981-.702.63-1.054 1.442-1.054 2.435v10.614l.364 4.98-2.217-2.363-2.654-2.726a5.149 5.149 0 0 0-1.09-.764 2.54 2.54 0 0 0-1.309-.363c-.92 0-1.684.29-2.29.872-.605.582-.908 1.309-.908 2.181 0 .509.084.957.254 1.345.194.388.485.763.872 1.127l9.705 8.905c.46.412.921.727 1.381.945.46.218.982.327 1.563.327a3.52 3.52 0 0 0 1.527-.327c.46-.218.92-.533 1.381-.945l9.741-8.905c.388-.364.666-.74.836-1.127.194-.388.29-.836.29-1.345 0-.872-.314-1.6-.944-2.18-.606-.582-1.37-.873-2.29-.873-.436 0-.86.121-1.272.363a5.149 5.149 0 0 0-1.09.764l-2.618 2.726-2.253 2.362.363-4.98V46.06c0-.993-.363-1.805-1.09-2.435-.727-.654-1.587-.981-2.58-.981Zm-19.482 37.4c-4.12 0-7.281-1.102-9.486-3.307-2.181-2.205-3.272-5.379-3.272-9.523V12.875c0-4.144 1.09-7.318 3.272-9.523C12.27 1.146 15.433.044 19.552.044h16.43v28.86c0 4.385 2.192 6.578 6.578 6.578h28.678v31.731c0 4.144-1.09 7.318-3.271 9.523s-5.343 3.308-9.487 3.308H19.552ZM44.16 29.595c-1.502 0-2.253-.751-2.253-2.253V.37c.945.073 1.878.448 2.798 1.127.946.678 1.927 1.526 2.945 2.544l19.518 19.7c1.066 1.09 1.939 2.108 2.617 3.053.678.921 1.054 1.854 1.127 2.8H44.159Z"/>
</svg>
