<svg xmlns="http://www.w3.org/2000/svg" width="76" height="77" fill="currentColor" viewBox="0 0 76 77">
  <path d="m.835 38.536 7.86-10.826c.634-.87 1.395-1.306 2.285-1.306.89 0 1.65.436 2.284 1.306l7.83 10.856c.791 1.068 1.019 2.046.682 2.936-.316.87-1.107 1.305-2.372 1.305h-4.539a22.46 22.46 0 0 0 2.7 7.534 24.387 24.387 0 0 0 5.131 6.17 22.958 22.958 0 0 0 7 4.093c2.61.99 5.389 1.483 8.335 1.483 3.124 0 6.051-.583 8.78-1.75 2.749-1.166 5.141-2.738 7.178-4.716 1.127-.91 2.215-1.305 3.263-1.186 1.068.118 1.918.573 2.55 1.364.614.752.88 1.661.802 2.729-.06 1.048-.574 1.987-1.543 2.818-2.67 2.59-5.813 4.657-9.432 6.2-3.619 1.561-7.485 2.342-11.598 2.342-4.014 0-7.791-.702-11.33-2.106a31.144 31.144 0 0 1-9.492-5.813 32.63 32.63 0 0 1-6.882-8.632 30.218 30.218 0 0 1-3.41-10.53H2.555c-1.305 0-2.116-.435-2.432-1.305-.297-.89-.06-1.878.711-2.966Zm16.196-22.75c2.67-2.59 5.813-4.657 9.432-6.2 3.619-1.562 7.475-2.343 11.568-2.343 4.014 0 7.791.702 11.33 2.106a31.617 31.617 0 0 1 9.492 5.844 31.687 31.687 0 0 1 6.882 8.66 30.39 30.39 0 0 1 3.44 10.5h4.272c1.285 0 2.086.446 2.403 1.336.336.87.108 1.849-.683 2.936l-7.86 10.827c-.633.87-1.394 1.305-2.284 1.305-.87 0-1.621-.435-2.254-1.305l-7.86-10.856c-.791-1.068-1.019-2.037-.683-2.907.337-.89 1.137-1.335 2.403-1.335h4.598a22.577 22.577 0 0 0-2.76-7.534 23.409 23.409 0 0 0-5.1-6.14c-2.038-1.76-4.361-3.134-6.971-4.123-2.61-1.009-5.399-1.513-8.365-1.513-3.085 0-6.001.583-8.75 1.75-2.749 1.167-5.141 2.739-7.178 4.716-1.127.91-2.215 1.305-3.263 1.187-1.048-.139-1.898-.603-2.55-1.394-.614-.732-.89-1.622-.831-2.67.079-1.048.603-1.997 1.572-2.847Z"/>
</svg>
