<svg xmlns="http://www.w3.org/2000/svg" fill="none" viewBox="0 0 82 12">
  <path fill="#fff" fill-rule="evenodd" d="M2.556 4.914v5.985H0V.124h3.244l1.745 5.48L6.735.123h3.244v10.775H7.423V4.945L5.907 9.461H4.07L2.553 4.915l.003-.001Zm39.137 1.622h1.725L42.9 2.617h-.7l-.46 3.52h.003l-.052.399h.002Zm2.056 2.495h-2.38l-.238 1.867h-2.833L39.783.122h5.537l1.485 10.776h-2.816l-.24-1.867Zm35.03-.598c.199 0 .321-.123.321-.321V6.857c0-.199-.122-.321-.32-.321h-1.777v1.898h1.776v-.001Zm0-4.071c.199 0 .321-.122.321-.321V2.908c0-.198-.122-.32-.32-.32h-1.777v1.775h1.776v-.001ZM74.295.122h4.836c1.607 0 2.679.92 2.679 2.51v.98c0 .657-.245 1.117-.81 1.47l-.566.351.536.306c.582.337.841.78.841 1.455v1.194c0 1.59-1.071 2.51-2.678 2.51h-4.837V.124l-.001-.002Zm-5.992 8.403h1.683c.198 0 .32-.122.32-.32V2.816c0-.198-.121-.32-.32-.32h-1.683c-.2 0-.323.122-.323.32v5.387c0 .199.123.321.323.321Zm-3.031-.015v-6C65.272.918 66.343 0 67.95 0h2.388c1.607 0 2.679.92 2.679 2.51v6c0 1.592-1.072 2.51-2.679 2.51h-2.387c-1.608 0-2.68-.919-2.68-2.51Zm-4.939-1.805h-.917v4.193h-2.71V.124h2.71V4.21h.934L62.003.124h2.877l-2.096 5.25 2.096 5.525h-3l-1.545-4.193-.002-.001Zm-12.65 4.193V.124h2.71V4.21h2.326V.124h2.71v10.775h-2.71V6.706h-2.326v4.193h-2.71v-.001ZM30.903.122v2.495h2.449v8.28h2.693v-8.28h2.45V.122h-7.592Zm-5.906 6.414c.198 0 .32-.122.32-.32V2.937c0-.198-.122-.32-.32-.32h-1.699v3.918h1.699Zm3.03-3.904v3.89c0 1.59-1.071 2.51-2.678 2.51h-2.05v1.866h-2.71V.124h4.775c1.59 0 2.663.919 2.663 2.51v-.002ZM11.258.122h2.557V6.46L16.248.122h3.061v10.776h-2.556V4.792l-2.434 6.106h-3.062V.124l.001-.002Z" class="mt-name" clip-rule="evenodd"/>
</svg>
