<svg xmlns="http://www.w3.org/2000/svg" width="76" height="76" fill="currentColor" viewBox="0 0 76 76">
  <path d="M38 73.914c-2.583 0-5.017-.894-7.302-2.683-2.26-1.788-4.26-4.296-5.998-7.525-1.714-3.229-3.067-7.017-4.06-11.363-.97-4.371-1.454-9.127-1.454-14.269 0-5.14.485-9.897 1.453-14.268.994-4.396 2.347-8.209 4.061-11.437 1.714-3.254 3.7-5.775 5.96-7.563 2.286-1.788 4.732-2.682 7.34-2.682 2.608 0 5.042.894 7.302 2.682 2.285 1.788 4.284 4.309 5.998 7.563 1.739 3.228 3.092 7.04 4.06 11.437.97 4.371 1.454 9.127 1.454 14.268 0 5.142-.497 9.898-1.49 14.27-.97 4.346-2.323 8.133-4.061 11.362-1.714 3.229-3.713 5.737-5.998 7.525-2.26 1.789-4.682 2.683-7.265 2.683ZM38 6.63c-1.813 0-3.552.845-5.216 2.534-1.664 1.664-3.142 3.949-4.433 6.855-1.291 2.905-2.31 6.258-3.055 10.058-.745 3.776-1.118 7.774-1.118 11.997 0 4.172.373 8.133 1.118 11.884.745 3.75 1.764 7.09 3.055 10.021 1.291 2.906 2.77 5.191 4.433 6.855 1.664 1.69 3.403 2.534 5.216 2.534 1.813 0 3.552-.845 5.216-2.534 1.664-1.664 3.142-3.949 4.433-6.855 1.291-2.93 2.31-6.27 3.055-10.021.745-3.75 1.118-7.712 1.118-11.885 0-4.222-.373-8.22-1.118-11.996-.745-3.8-1.764-7.152-3.055-10.058-1.291-2.906-2.77-5.191-4.433-6.855C41.552 7.475 39.813 6.63 38 6.63Zm-2.422-3.986h4.88v70.56h-4.88V2.646ZM38 52.008c3.825 0 7.451.323 10.878.968 3.428.621 6.508 1.528 9.24 2.72 2.756 1.167 5.004 2.546 6.743 4.135l-3.763 3.092c-1.64-1.291-3.614-2.384-5.923-3.278-2.285-.919-4.88-1.602-7.787-2.049-2.88-.472-6.01-.708-9.388-.708s-6.52.236-9.425.708c-2.881.447-5.477 1.13-7.787 2.05-2.285.893-4.247 1.986-5.886 3.277l-3.763-3.092c1.739-1.59 3.974-2.968 6.706-4.135 2.757-1.192 5.85-2.099 9.277-2.72 3.427-.645 7.053-.968 10.878-.968ZM72.386 35.54v4.88H3.614v-4.88h68.772ZM38 24.178c-3.825 0-7.451-.31-10.878-.93-3.428-.647-6.52-1.553-9.277-2.72-2.732-1.193-4.967-2.584-6.706-4.173l3.763-3.092c1.64 1.291 3.601 2.396 5.886 3.315 2.31.895 4.905 1.578 7.787 2.05 2.905.447 6.047.67 9.425.67 3.378 0 6.507-.223 9.388-.67 2.906-.472 5.502-1.155 7.787-2.05 2.31-.918 4.284-2.024 5.923-3.315l3.763 3.092c-1.739 1.59-3.987 2.98-6.743 4.172-2.732 1.168-5.812 2.074-9.24 2.72-3.427.621-7.053.931-10.878.931ZM38 76c-5.19 0-10.084-.993-14.678-2.98a38.906 38.906 0 0 1-12.108-8.234A38.906 38.906 0 0 1 2.98 52.678C.993 48.084 0 43.191 0 38c0-5.19.993-10.071 2.98-14.641 1.987-4.595 4.72-8.643 8.197-12.145A38.906 38.906 0 0 1 23.284 2.98C27.88.993 32.772 0 37.963 0c5.19 0 10.083.993 14.678 2.98 4.595 1.987 8.643 4.732 12.145 8.234 3.502 3.502 6.247 7.55 8.234 12.145C75.007 27.929 76 32.809 76 38c0 5.19-.993 10.084-2.98 14.678a38.906 38.906 0 0 1-8.234 12.108c-3.502 3.502-7.55 6.247-12.145 8.234C48.071 75.007 43.191 76 38 76Zm0-5.067c4.495 0 8.73-.869 12.704-2.608A33.449 33.449 0 0 0 61.21 61.21a33.449 33.449 0 0 0 7.116-10.506c1.738-3.974 2.607-8.209 2.607-12.704 0-4.495-.869-8.73-2.608-12.704a33.143 33.143 0 0 0-7.153-10.506 33.449 33.449 0 0 0-10.505-7.115c-3.974-1.739-8.209-2.608-12.704-2.608-4.496 0-8.73.869-12.704 2.608a33.45 33.45 0 0 0-10.506 7.115c-3.005 3.03-5.377 6.532-7.116 10.506C5.924 29.27 5.067 33.505 5.067 38c0 4.495.857 8.73 2.57 12.704A33.98 33.98 0 0 0 14.79 61.21a33.449 33.449 0 0 0 10.506 7.116c3.974 1.738 8.209 2.607 12.704 2.607Z"/>
</svg>
