<svg xmlns="http://www.w3.org/2000/svg" viewBox="0 0 80 80">
  <path d="M9.656 40.469c0 1.646.531 2.968 1.594 3.968 1.042 1 2.427 1.5 4.156 1.5h31.219l13.031-.593-2.343-3.032-9.5 7.938-7 6.969a6.87 6.87 0 0 0-1.25 1.718c-.334.626-.5 1.355-.5 2.188 0 1.458.479 2.688 1.437 3.688.98.979 2.24 1.468 3.781 1.468 1.48 0 2.782-.562 3.907-1.687l20.156-20.125c.5-.48.885-1.084 1.156-1.813a5.85 5.85 0 0 0 .438-2.187c0-.73-.146-1.459-.438-2.188a5.054 5.054 0 0 0-1.156-1.843L48.188 16.311c-1.126-1.125-2.428-1.687-3.907-1.687-1.541 0-2.802.5-3.781 1.5-.958.98-1.438 2.198-1.438 3.656 0 .834.167 1.573.5 2.219.334.625.75 1.188 1.25 1.688l7 7 9.5 7.937 2.344-3.031-13.031-.563H15.406c-1.729 0-3.114.5-4.156 1.5-1.063 1-1.594 2.313-1.594 3.938Z"/>
</svg>
