<svg xmlns="http://www.w3.org/2000/svg" width="76" height="77" fill="currentColor" viewBox="0 0 76 77">
  <path d="M3.202 55.922V25.774c0-.93.284-1.669.852-2.214.568-.545 1.34-.817 2.316-.817h7.87c.999 0 1.782.272 2.35.817.568.545.852 1.283.852 2.214v30.148c0 .954-.284 1.704-.852 2.248-.568.523-1.351.784-2.35.784H6.37c-.976 0-1.748-.261-2.316-.784-.568-.544-.852-1.294-.852-2.248Zm18.464 0V10.138c0-.954.284-1.692.851-2.214.568-.545 1.329-.818 2.283-.818h7.903c.976 0 1.748.273 2.316.818.568.522.852 1.26.852 2.214v45.784c0 .954-.284 1.704-.852 2.248-.567.523-1.34.784-2.316.784H24.8c-.954 0-1.715-.261-2.283-.784-.567-.544-.851-1.294-.851-2.248Zm18.429 0V17.905c0-.954.284-1.692.852-2.214.567-.545 1.34-.818 2.316-.818h7.87c.976 0 1.748.273 2.316.818.59.522.885 1.26.885 2.214v38.017c0 .954-.295 1.704-.885 2.248-.568.523-1.34.784-2.317.784h-7.869c-.976 0-1.749-.261-2.316-.784-.568-.544-.852-1.294-.852-2.248Zm18.464 0V33.405c0-.954.283-1.703.851-2.248.568-.545 1.34-.818 2.317-.818h7.869c.976 0 1.748.273 2.316.818.568.545.852 1.294.852 2.248v22.517c0 .954-.284 1.704-.852 2.248-.568.523-1.34.784-2.316.784h-7.87c-.976 0-1.748-.261-2.316-.784-.568-.544-.851-1.294-.851-2.248ZM0 67.3c0-.75.273-1.397.818-1.942.545-.522 1.18-.783 1.907-.783h70.516c.75 0 1.396.261 1.941.783.546.545.818 1.193.818 1.942 0 .772-.272 1.42-.818 1.942a2.71 2.71 0 0 1-1.941.783H2.725c-.726 0-1.362-.26-1.907-.783C.273 68.719 0 68.072 0 67.3Z"/>
</svg>
