<svg width="512" height="512" viewBox="0 0 512 512" fill="none" xmlns="http://www.w3.org/2000/svg">
<circle cx="256" cy="256" r="240" fill="#FFF0D1" stroke="#202B20" stroke-width="32"/>
<rect x="165.154" y="422.494" width="181.691" height="18" rx="9" fill="#883302"/>
<path d="M238.328 422.494H337.846C342.816 422.494 346.846 426.524 346.846 431.494C346.846 436.465 342.816 440.494 337.846 440.494H238.328V422.494Z" fill="#D55000"/>
<path d="M121.593 406.851H388.407C393.378 406.851 397.407 402.821 397.407 397.851C397.407 392.88 393.378 388.851 388.407 388.851H121.593C116.622 388.851 112.593 392.88 112.593 397.851C112.593 402.821 116.622 406.851 121.593 406.851Z" fill="#D55000"/>
<path d="M287.409 388.851V406.851H388.407C393.378 406.851 397.407 402.821 397.407 397.851C397.407 392.88 393.378 388.851 388.407 388.851H287.409Z" fill="#202B20"/>
<path d="M75.1931 172.405L129.21 125.373L190.213 160.763L257.269 175.199L303.835 151.45L359.715 121.647L427.237 172.405" stroke="#202B20" stroke-width="11"/>
<circle cx="75.1931" cy="172.25" r="12.5" fill="#202B20"/>
<circle cx="129.483" cy="127.356" r="12.5" fill="#202B20"/>
<circle cx="189.143" cy="159.75" r="12.5" fill="#202B20"/>
<circle cx="257.344" cy="174.855" r="12.5" fill="#202B20"/>
<circle cx="360.104" cy="123.647" r="12.5" fill="#202B20"/>
<circle cx="427.237" cy="172.25" r="12.5" fill="#202B20"/>
<rect x="422.258" y="216.697" width="24.3132" height="12.8245" fill="#883302"/>
<path d="M169.195 215.172L162.043 248.282H273.079V215.172H169.195Z" fill="#D55000"/>
<path d="M273.078 215.172L230.379 246.651H290.506L301.631 231.288H328.648V223.578H294.479L273.078 215.172Z" fill="#883302"/>
<path fill-rule="evenodd" clip-rule="evenodd" d="M240.322 197.868H271.676L301.454 210.528H333.443V218.019H412.356V211.908H452.12V235.824H412.356V230.17H333.443V237.74H306.617L299.38 247.642H277.547L294.012 220.579L269.231 209.868H228.322H199.719H174.472L165.844 247.642H153.426L164.93 197.868H187.719V189.431H240.322V197.868ZM306.617 226.192V221.514H321.33V226.192H306.617ZM423.93 226.283V220.553H429.739V226.283H423.93ZM437.145 226.283V220.553H442.955V226.283H437.145Z" fill="#202B20"/>
<path d="M362.313 260.395H139.886L129.953 271.392H374.729L362.313 260.395Z" fill="#883302"/>
<path d="M423.589 284.741L86.9949 284.741L69.5066 296.057H440.872L423.589 284.741Z" fill="#883302"/>
<path fill-rule="evenodd" clip-rule="evenodd" d="M433.272 269.243H387.827L356.394 242.899H140.119L117.376 270.042H78.1702L51.5256 295.716L69.8323 311.54C66.1497 316.12 66.1497 320.441 66.1497 324.64V324.642L66.1633 325.444C66.2978 329.508 67.3708 334.412 67.3772 334.442L69.8323 340.042L70.2542 340.742C71.0597 342.054 72.9015 344.942 74.7434 347.042L74.9807 347.304C77.5012 350.014 82.1106 352.642 82.1106 352.642L128.766 376.275H376.778L376.949 376.269C377.697 376.233 380.877 375.968 386.49 373.968L387.827 373.475C395.194 370.675 428.928 349.5 428.928 349.5C428.949 349.488 433.543 346.867 436.058 344.163L436.295 343.901C436.953 343.151 437.522 342.602 438.051 342.092C439.373 340.818 440.439 339.79 441.987 336.487L442.434 335.5C443.355 332.35 443.584 326.838 443.642 324.279L443.661 322.901C442.765 317.842 442.103 315.222 440.639 310.891L461.314 296.272L433.272 269.243ZM146.768 256.899H352.173L367.482 269.243L135.44 270.042L146.768 256.899ZM423.609 280.88L439.415 294.609H70.2542L86.9787 280.88H423.609Z" fill="#202B20"/>
<circle cx="152.252" cy="335.444" r="22" stroke="#883302" stroke-width="11"/>
<circle cx="97.5457" cy="325.444" r="12" stroke="#883302" stroke-width="11"/>
<circle cx="411.319" cy="325.444" r="12" stroke="#883302" stroke-width="11"/>
<circle cx="219.755" cy="335.444" r="22" stroke="#883302" stroke-width="11"/>
<circle cx="287.258" cy="335.444" r="22" stroke="#883302" stroke-width="11"/>
<circle cx="354.761" cy="335.444" r="22" stroke="#883302" stroke-width="11"/>
<circle cx="152.252" cy="335.444" r="6" fill="#883302"/>
<circle cx="219.755" cy="335.444" r="6" fill="#883302"/>
<circle cx="287.409" cy="335.444" r="6" fill="#883302"/>
<circle cx="354.761" cy="335.444" r="6" fill="#883302"/>
<path d="M256 49.0967C257.678 49.0967 259.352 49.1175 261.021 49.1572V145.221L253.834 148.887L236.138 145.076V50.0381C242.675 49.4155 249.3 49.0967 256 49.0967ZM214.138 140.34L199.338 137.154L189.255 131.304V60.0986C197.336 57.3462 205.642 55.0797 214.138 53.334V140.34ZM329.903 62.6865C367.5 77.0681 399.827 102.102 423.194 134.096L420.795 136.287L374.737 101.664L362.005 92.0928L347.951 99.5889L329.903 109.213V62.6865ZM283.021 50.8457C291.486 51.9499 299.791 53.5665 307.903 55.6621V120.946L292.251 129.294L283.021 134.001V50.8457ZM167.255 118.541L141.756 103.748L126.303 94.7832C138.835 84.6886 152.568 76.0258 167.255 69.042V118.541Z" fill="#883302"/>
<circle cx="75.1931" cy="231.727" r="12.5" fill="#883302"/>
<circle cx="110.046" cy="189.431" r="12.5" fill="#883302"/>
<circle cx="348.761" cy="169.159" r="12.5" fill="#883302"/>
<circle cx="146.752" cy="166.75" r="7" fill="#202B20"/>
<circle cx="390.819" cy="191.431" r="7" fill="#202B20"/>
</svg>
