<svg xmlns="http://www.w3.org/2000/svg" width="76" height="77" fill="currentColor" viewBox="0 0 76 77">
  <path fill-opacity="0" d="m55.816 54.333-3.847-6.491 7.803-9.32-3.298-3.939H67.52l-11.703 19.75Z" />
  <path fill-opacity="0.1" d="m21.515 38.522 16.51-19.72 16.51 19.72-16.51 19.72-16.51-19.72Z" />
  <path fill-opacity="0" d="M10.255 25.121h17.242l-11.22 13.4 6.586 7.867H10.255V25.121Z" />
  <path fill-rule="evenodd"
    d="M5.74 50.904h20.904l11.38 13.594 10.872-12.985 6.92 11.678 19.629-33.124H52.693l-14.668-17.52-6.748 8.058H5.74v30.3Zm46.23-3.062 3.846 6.49 11.703-19.749H56.474l3.298 3.939-7.803 9.32Zm-24.473-22.72H10.255v21.266h12.608l-6.585-7.866 11.219-13.4Zm10.528-6.32-16.51 19.72 16.51 19.72 16.51-19.72-16.51-19.72Z"
    clip-rule="evenodd" />
</svg>