<svg xmlns="http://www.w3.org/2000/svg" viewBox="0 0 80 80">
  <path fill-rule="evenodd" d="M38.439 79.734c.584.177 1.104.266 1.561.266.457 0 .977-.089 1.561-.266.584-.178 1.13-.394 1.638-.648 5.736-2.767 10.598-5.343 14.583-7.73 3.986-2.386 7.21-4.772 9.672-7.158 2.462-2.411 4.252-4.975 5.369-7.692 1.116-2.741 1.675-5.85 1.675-9.328V19.952c0-3.427-.584-6.054-1.752-7.882-1.142-1.853-3.274-3.452-6.397-4.797-.609-.254-1.56-.597-2.855-1.028-1.295-.457-2.742-.94-4.341-1.447a351.13 351.13 0 0 0-4.798-1.561 299.136 299.136 0 0 0-4.226-1.333 332.28 332.28 0 0 0-2.59-.8 23.417 23.417 0 0 0-3.807-.8C42.36.103 41.117 0 40 0s-2.36.102-3.731.305-2.64.47-3.808.8c-.508.152-1.384.418-2.627.799-1.219.355-2.628.787-4.227 1.294-1.574.508-3.16 1.029-4.76 1.562-1.599.507-3.046.99-4.34 1.447-1.295.456-2.247.812-2.856 1.066-3.123 1.345-5.268 2.944-6.435 4.797-1.143 1.828-1.714 4.456-1.714 7.882v27.226c0 3.477.559 6.587 1.676 9.328 1.117 2.717 2.906 5.28 5.369 7.692 2.462 2.386 5.686 4.772 9.671 7.159 3.985 2.386 8.847 4.962 14.584 7.73.507.253 1.053.469 1.637.647Zm26.463-26.669c1.017-2.232 1.449-4.73 1.449-7.373V21.323c0-.991-.117-2.29-.728-3.509l-.128-.242-.153-.255c-.785-1.243-1.923-1.997-2.995-2.436a78.077 78.077 0 0 0-3.615-1.366c-.984-.366-1.988-.725-3.011-1.075l-1.053-.357c-.676-.238-1.338-.467-1.986-.688l-1.96-.652a130.498 130.498 0 0 0-3.252-1.085l-2.026-.713-.122-.042-.123-.035-.749-.207a35.62 35.62 0 0 0-1.848-.453A10.731 10.731 0 0 0 40 7.88c-.807 0-1.606.097-2.388.27l-.333.078c-.68.151-1.514.368-2.477.64l-.124.035-.121.042c-.364.129-1.008.34-1.968.644l-.03.01c-.961.312-2.084.686-3.365 1.122l-.024.008c-1.24.43-2.544.885-3.909 1.365-1.387.462-2.738.94-4.055 1.43l-.96.35c-.936.347-1.8.682-2.592 1.007-1.144.468-2.363 1.295-3.149 2.691-.723 1.286-.856 2.694-.856 3.751v24.37c0 2.506.37 4.882 1.278 6.99.93 2.155 2.446 4.03 4.325 5.663l.014.011.015.013c1.756 1.497 4.07 3.124 6.869 4.877l10.28 6.436c.44.276 1.025.638 1.537.857.44.189 1.157.438 2.033.438.876 0 1.592-.25 2.032-.438l.21-.09.2-.114c.187-.107.524-.3 1-.576a636.852 636.852 0 0 0 9.887-5.787l.012-.007.012-.008c2.77-1.689 5.112-3.34 6.963-4.955 1.992-1.715 3.584-3.682 4.587-5.937h-.001Z" clip-rule="evenodd"/>
  <rect width="23.66" height="8.812" x="29.232" y="33.491" rx="4.406" transform="rotate(51.483 29.232 33.491)"/>
  <rect width="38.134" height="8.812" x="31.694" y="52.634" rx="4.406" transform="rotate(-57.4 31.694 52.634)"/>
</svg>
