<svg xmlns="http://www.w3.org/2000/svg" viewBox="0 0 80 80">
  <path d="M39.988 7.483c-1.278 0-2.305.412-3.081 1.237-.777.809-1.165 1.885-1.165 3.227v23.677l.461 10.117 2.353-1.82-6.162-7.375-5.41-5.434a5.327 5.327 0 0 0-1.335-.97c-.485-.26-1.051-.389-1.698-.389-1.132 0-2.086.372-2.863 1.116-.76.76-1.14 1.739-1.14 2.936 0 1.148.437 2.159 1.31 3.032l15.624 15.65a3.72 3.72 0 0 0 1.408.897 4.55 4.55 0 0 0 1.698.34 4.55 4.55 0 0 0 1.698-.34 3.924 3.924 0 0 0 1.432-.898l15.624-15.649c.873-.873 1.31-1.884 1.31-3.032 0-1.197-.388-2.176-1.164-2.936-.76-.744-1.707-1.116-2.839-1.116-.647 0-1.221.13-1.723.388a5.506 5.506 0 0 0-1.31.97l-5.434 5.435-6.163 7.376 2.354 1.82.436-10.118V11.947c0-1.342-.388-2.418-1.164-3.227-.777-.825-1.796-1.237-3.057-1.237Z"/>
  <path fill-rule="evenodd" d="M72 64.517H8V48.862a4 4 0 0 0-8 0v17.655l.008.309a6 6 0 0 0 5.683 5.683l.309.008h68l.309-.008A6.001 6.001 0 0 0 80 66.516V48.862a4 4 0 0 0-8 0v15.655Z" clip-rule="evenodd"/>
</svg>
