<svg xmlns="http://www.w3.org/2000/svg" viewBox="0 0 80 80">
  <path d="M29.187 26.717c-.682 0-1.263-.23-1.74-.69a2.415 2.415 0 0 1-.691-1.74c0-.683.23-1.255.69-1.716a2.369 2.369 0 0 1 1.741-.716h34.755a2.37 2.37 0 0 1 1.74.716c.478.461.717 1.033.717 1.715 0 .7-.239 1.28-.717 1.74a2.415 2.415 0 0 1-1.74.691H29.187Zm0 15.714c-.682 0-1.263-.23-1.74-.69A2.42 2.42 0 0 1 26.756 40c0-.682.23-1.254.69-1.715a2.37 2.37 0 0 1 1.741-.716h34.755a2.37 2.37 0 0 1 1.74.716c.478.461.717 1.033.717 1.715a2.37 2.37 0 0 1-.717 1.74c-.477.461-1.058.691-1.74.691H29.187Zm0 15.714c-.682 0-1.263-.23-1.74-.69-.46-.461-.691-1.033-.691-1.715 0-.7.23-1.28.69-1.74a2.37 2.37 0 0 1 1.741-.717h34.755a2.37 2.37 0 0 1 1.74.716 2.37 2.37 0 0 1 .717 1.74c0 .683-.239 1.255-.717 1.715a2.416 2.416 0 0 1-1.74.691H29.187ZM17.21 27.895c-.99 0-1.843-.35-2.56-1.05-.7-.7-1.049-1.552-1.049-2.559 0-1.007.35-1.86 1.05-2.56.716-.699 1.57-1.049 2.559-1.049.99 0 1.834.35 2.533 1.05.717.7 1.075 1.552 1.075 2.56 0 1.006-.358 1.859-1.075 2.558-.7.7-1.544 1.05-2.533 1.05Zm0 15.714c-.99 0-1.843-.35-2.56-1.05-.7-.716-1.049-1.57-1.049-2.559 0-.99.35-1.834 1.05-2.534.716-.716 1.57-1.075 2.559-1.075.99 0 1.834.359 2.533 1.075.717.7 1.075 1.544 1.075 2.534 0 .99-.358 1.843-1.075 2.56a3.454 3.454 0 0 1-2.533 1.049Zm0 15.713c-.99 0-1.843-.35-2.56-1.049a3.451 3.451 0 0 1-1.049-2.534c0-1.006.35-1.86 1.05-2.559.716-.7 1.57-1.05 2.559-1.05.99 0 1.834.35 2.533 1.05.717.7 1.075 1.553 1.075 2.56 0 .99-.358 1.834-1.075 2.533-.7.7-1.544 1.05-2.533 1.05Z"/>
</svg>
