<svg xmlns="http://www.w3.org/2000/svg" viewBox="0 0 81 80">
  <path d="M25.748 49.636c0 1.333.467 2.466 1.4 3.4.978.978 2.123 1.456 3.434 1.433 1.333 0 2.456-.455 3.367-1.367l33.136-33.136 4.634-5.167-.6 4.4-.267 9.135c-.044 1.244.378 2.311 1.267 3.2a4.33 4.33 0 0 0 2.9 1.3c1.156.045 2.156-.356 3-1.2.778-.778 1.178-1.8 1.2-3.067l-.433-21.835c0-.889-.145-1.634-.433-2.234a4.81 4.81 0 0 0-1.067-1.6 4.696 4.696 0 0 0-1.567-1.033c-.578-.267-1.322-.411-2.233-.434L51.65.998c-1.266.022-2.289.422-3.066 1.2-.845.845-1.256 1.834-1.234 2.967.067 1.134.511 2.111 1.334 2.934.91.91 1.989 1.344 3.233 1.3l9.1-.3 4.434-.567-5.2 4.6L27.115 46.27c-.911.91-1.367 2.033-1.367 3.367Z"/>
  <path d="M53.517 80H26.483l-3.266-.004c-6.891-.024-10.797-.208-13.845-1.637l-.335-.163a16.552 16.552 0 0 1-6.925-6.657l-.308-.576C0 67.423 0 62.789 0 53.523V26.476c0-9.265 0-13.9 1.804-17.44a16.553 16.553 0 0 1 7.233-7.233C12.135.225 16.07.03 23.217.003a5.172 5.172 0 0 1 0 10.346c-4.806 0-4.522.004-6.764.187-2.106.172-2.644.446-2.718.484h-.001a6.208 6.208 0 0 0-2.713 2.714c-.039.075-.313.613-.485 2.72-.137 1.68-.176 3.778-.187 6.749l-.004 3.28v27.034c0 4.805.008 7.788.191 10.03.172 2.106.447 2.643.484 2.718l.001.001a6.208 6.208 0 0 0 2.713 2.713h.001c.074.038.612.313 2.718.485 2.242.183 5.224.191 10.03.191h27.034c4.806 0 7.788-.008 10.03-.191 2.106-.172 2.644-.447 2.718-.484l.001-.001a6.209 6.209 0 0 0 2.713-2.713v-.001c.038-.075.695-.612.868-2.718.183-2.242 0-1.735 0-6.54a5.172 5.172 0 1 1 10.344 0v.006c0 9.266-.191 10.41-1.995 13.95l-.308.576a16.552 16.552 0 0 1-6.925 6.657l-.335.163C67.128 80 62.498 80 53.517 80Z"/>
</svg>
