<svg xmlns="http://www.w3.org/2000/svg" viewBox="0 0 81 81">
  <path d="M25.3 45.963H2.992c-.622 0-1.172-.228-1.65-.682C.887 44.826.66 44.3.66 43.7c0-.621.227-1.16.682-1.614.478-.455 1.028-.682 1.65-.682H25.3c.646 0 1.196.227 1.65.682.479.454.718.993.718 1.615 0 .598-.239 1.124-.718 1.579a2.248 2.248 0 0 1-1.65.682Zm0-19.201H2.992c-.622 0-1.172-.239-1.65-.717-.455-.479-.682-1.005-.682-1.58 0-.621.227-1.16.682-1.614.478-.455 1.028-.682 1.65-.682H25.3c.646 0 1.196.227 1.65.682.479.454.718.993.718 1.615 0 .574-.239 1.1-.718 1.579a2.193 2.193 0 0 1-1.65.717Zm0 9.618H2.992c-.622 0-1.172-.227-1.65-.681-.455-.479-.682-1.03-.682-1.651 0-.598.227-1.125.682-1.58.478-.454 1.028-.681 1.65-.681H25.3c.646 0 1.196.227 1.65.682.479.454.718.98.718 1.579 0 .622-.239 1.172-.718 1.65a2.248 2.248 0 0 1-1.65.683Z"/>
  <path fill-rule="evenodd" d="M35.426 63.604c1.986 1.986 4.917 2.979 8.793 2.979h24.633c3.9 0 6.843-.993 8.829-2.979 1.986-1.962 2.979-4.857 2.979-8.685V25.17c0-3.852-.993-6.76-2.98-8.721-1.985-1.962-4.928-2.943-8.828-2.943H44.22c-3.876 0-6.807.981-8.793 2.943-1.986 1.962-2.979 4.869-2.979 8.72V54.92c0 3.828.993 6.723 2.98 8.685Zm9.224-44.029h23.807c1.822 0 3.375.478 4.503 1.576 1.144 1.114 1.63 2.709 1.63 4.592V54.31c0 1.903-.484 3.512-1.63 4.628-1.128 1.098-2.681 1.576-4.502 1.576H44.65c-1.84 0-3.408-.476-4.538-1.576l-.01-.01c-1.117-1.117-1.585-2.722-1.585-4.618V25.743c0-1.876.47-3.468 1.585-4.583l.01-.01c1.13-1.1 2.697-1.575 4.538-1.575Z" clip-rule="evenodd"/>
</svg>
