<svg xmlns="http://www.w3.org/2000/svg" fill="none" viewBox="0 0 70 12">
  <g fill="#fff" class="wot-name">
    <path d="M21.614 0h2.046l.068 8.727h2.659v2.114h-4.773V0ZM61.57 0h2.522l-2.59 4.5 2.59 6.41h-2.318L60 6.34v4.568h-2.045L58.024.07h2.045v3L61.57 0ZM38.933 10.841h-1.5l-.069-7.16h3.41v1.433h-1.91v1.432h1.432V7.84h-1.363v3ZM53.524.068l1.636 4.978V0h2.046v10.91h-2.114l-1.705-5.183v5.182h-2.113V.07h2.25Z"/>
    <path d="M45.342.068v2.046h-1.568v8.795H41.66V2.114h-1.636V.068h5.318Zm22.023 4.637c.205.204.409.409.75.681.682.546 1.5 1.705 1.568 3.069-.136 1.159-1.09 2.182-1.636 2.386-.818.273-2.182.273-2.864-.273-.682-.545-1.295-1.636-1.295-3l2.045-.068c.068.341 0 .955.41 1.296.135.136.272.204.408.204.205 0 .41-.136.546-.409.273-.545-.068-1.227-.477-1.568-.887-.818-1.773-1.568-2.387-2.455-.477-.682-.477-1.227-.477-1.84-.068-1.228.886-2.183 1.568-2.455.41-.137.818-.205 1.16-.205.204 0 .408 0 .613.068.886.205 1.636.887 1.977 1.773.136.341.136.887.136 1.023l-2.045.273-.136-.614c-.069-.341-.273-.546-.478-.614h-.068c-.136 0-.273.068-.409.205-.273.273-.204.477-.204.75 0 .409.477 1.023.75 1.295.204.205.34.341.545.478ZM5.386.068l.546 4.637.477-4.637h2.182L6.955 10.91h-1.91l-.681-3.886-.614 3.886H1.773L0 .07h2.182l.545 4.636.546-4.637h2.113Z"/>
    <path fill-rule="evenodd" d="M11.591 0c-1.159 0-1.704.614-2.114 1.09-.409.478-.545 1.228-.545 1.706v5.386c0 .955.34 1.636.818 1.977.682.546 1.023.682 1.841.75h.136c.75 0 1.228-.204 1.773-.682.205-.204.819-.954.819-1.772V3c-.069-1.773-1.296-3-2.728-3Zm0 8.864a.612.612 0 0 0 .614-.614V2.66a.611.611 0 0 0-.614-.615.611.611 0 0 0-.614.614V8.25c0 .341.273.614.614.614ZM19.5 6.205c.341-.341.887-1.023.887-1.705V2.523C20.182.886 19.227.068 17.59 0H15v10.841h1.977V6.955h.545l1.091 3.886h2.182l-.136-.477-1.16-4.16ZM17.66 4.84c.409 0 .681-.273.681-.614V2.66c0-.204-.204-.477-.477-.477h-.955V4.84h.75ZM29.932 0h-2.795l-.068 10.841h2.659c1.84 0 2.659-1.636 2.59-2.795V2.727C32.456 1.227 31.229 0 29.933 0Zm-.068 8.796a.538.538 0 0 0 .546-.546V2.66c0-.274-.273-.546-.546-.546h-.75v6.682h.75Zm6.818-3.546c.069-1.023-.954-1.704-1.772-1.704-1.091 0-1.773.75-1.773 1.772v3.614c-.068 1.023.682 1.977 1.705 1.977 1.022 0 1.909-.886 1.84-1.84V5.25ZM34.91 9.273c.204 0 .34-.136.34-.341V5.25c0-.204-.136-.34-.34-.34-.205 0-.341.136-.341.34v3.682c0 .205.136.34.34.34ZM46.433 0v.136l-1.841 10.705h2.182l.409-2.523h1.09l.342 2.523h2.181L48.956 0h-2.523Zm1.227 4.364-.41 2.182H48l-.34-2.182Z" clip-rule="evenodd"/>
  </g>
</svg>
