<svg xmlns="http://www.w3.org/2000/svg" width="77" height="77" fill="currentColor" viewBox="0 0 77 77"><path d="M9.786 77c-2.284 0-4.083-.514-5.396-1.542-1.285-.999-1.928-2.384-1.928-4.154 0-2.77.828-5.667 2.484-8.693C6.602 59.556 9 56.7 12.141 54.046c3.14-2.684 6.923-4.854 11.349-6.51 4.454-1.684 9.45-2.526 14.988-2.526 5.568 0 10.564.842 14.99 2.526 4.453 1.656 8.236 3.826 11.348 6.51 3.14 2.655 5.539 5.51 7.195 8.565 1.684 3.026 2.526 5.924 2.526 8.693 0 1.77-.656 3.155-1.97 4.154C71.283 76.486 69.498 77 67.215 77H9.786ZM38.52 37.344c-3.054 0-5.881-.828-8.48-2.484-2.597-1.685-4.696-3.94-6.294-6.767-1.57-2.855-2.356-6.052-2.356-9.592 0-3.484.785-6.624 2.356-9.422 1.598-2.798 3.697-5.01 6.295-6.638C32.64.814 35.467 0 38.522 0c3.054 0 5.88.8 8.479 2.398 2.598 1.599 4.682 3.797 6.252 6.595 1.6 2.77 2.398 5.91 2.398 9.422 0 3.569-.799 6.78-2.398 9.636-1.57 2.855-3.654 5.124-6.252 6.809-2.598 1.656-5.425 2.484-8.48 2.484Z"/></svg>