<svg xmlns="http://www.w3.org/2000/svg" viewBox="0 0 77 77">
  <path fill-rule="evenodd" d="m73.216 62.21.195.648C64.14 71.876 47.672 77 38.466 77c-9.14 0-25.607-5.125-34.878-14.142l.195-.648c.497-1.618 1.502-3.257 2.957-4.834 5.37-5.82 16.883-10.8 31.727-10.8 14.86 0 26.423 4.992 31.803 10.82l.184.204c1.35 1.508 2.287 3.068 2.761 4.61ZM55.971 18.812c0 10.963-7.714 19.331-17.503 19.201-9.79-.13-17.375-8.238-17.44-19.2C20.965 8.497 28.744 0 38.469 0 48.257 0 55.97 8.498 55.97 18.812Z" clip-rule="evenodd"/>
</svg>
